<svg id="Layer_1" xmlns="http://www.w3.org/2000/svg" viewBox="0 0 302.6 1132.1"><style>.st0{fill:#fff}</style><path class="st0" d="M89.7 1038.8l7.6 2.7c-1.8-9.4-5.9-20.7-7.8-26.9 5.5-2.9 9.2-9.4 13.5-9.4 5.5 0 7.2 18.7 17.8 49.8l4.1-1.2.6 3.5c2.1-1.6 4.3-.6 6.2.2 5.9 2.9 13.5 6.2 20.5 9.2-1.6 2.5-7.2-2.3-8.6.2l23.6 10.3-1.2 1.2c-6.8-3.1-12.1-4.1-16.6-5.7-1.2 3.1 12.3 4.7 12.7 9.4-3.3-1.4-7.6-2.1-11.3-1.2-4.7-4.1-11.9-7.2-19.5-8.2.6 2.5 3.9 3.3 7.8 4.7l-1 1.6-10.1-3.7c1.2 13.7 10.1 26.2 26.7 26.9 0 3.1 2.3 2.5 3.9 1.4 2.9 2.3 15.2 9.6 23 12.1-.8 1.6-1.8 3.1-3.7 4.3l-6.8-2.9-1.6 2.5 4.1 3.9c-5.7-1-10.9-6.2-15.2-3.1-3.5-1.8-8.8-4.1-15.2-6.6l8.6 18.2c-2.5-.8-4.3-1.8-5.9-4.1-1.6-.4-2.5-.8-4.1-1.2-2.9-5.3-5.5-16.8-10.5-17.2l7.4 16.2c-4.1-1.8-10.1-13.9-13.7-21.9-1.6-.4-2.5.8-2.5 2.5-4.3-1.4-8.4-3.1-12.3-4.3l7.4 24h-3.1l-2.1-2.5c-6.4 0-5.7-1.2-9.6-5.7l-1.8 1.4c-3.7-6.4-9-15.8-14.2-25.4-32.6-12.1-62.2-25.8-62.2-35.9 0-2.3 1.4-5.3 3.1-8 6.2 0 4.5-5.3 8.8-5.3 7.6 0 14.6 14.4 25.9 16.4 2.5 4.5 7.8 7.8 16 10-3.3-7.6-8.4-14.4-11.1-22.3l-1.6 1.8c-11.3-4.9-31.8-13.7-31.8-19.9 0-3.5 10.3-10.5 13.5-14.4 4.1 1.8 6.4 4.7 8.6 7.4l7.6 2.9-1-9.4c-.6-5.3 5.7-10.9 11.1-15.6h4.5c4.7 15.6 5.5 27.5 11.5 37.3m15.2 77.5l2.9 4.1h2.3l-3.7-5.3-1.5 1.2zm22.1 1l-3.7-8c1 0 3.9 2.3 6.8 10l-3.1-2zm61.6 0l-.8 1.8-5.1-.6 1.4-2.1 4.5.9zm-30.2-.6c2.1 0 4.9.2 7.6 1l.6-2.1-8.2-1.8v2.9zm-50.9-46.3h-.2c-2.3-4.9-7.6-8.2-13.1-7 1 6.4 5.1 14.6 7.6 18.2 6.8 3.7 9.6 5.7 11.9 4.5l-3.1-8.6c-.8-2.1-1.4-3.9-2.3-5.5 3.1-1.8 1-5.5-2.1-7.4l1.3 5.8zm55 .4l-1.4 1.2c-3.1-1.2-5.5-1.6-5.1-4.1l6.5 2.9z"/><path class="st0" d="M56.5 995.5c.1-1 0-1.7-.4-2.2-.4-.5-.9-.9-1.5-1.3s-1.2-.9-1.8-1.3c-.6-.5-1.1-1.1-1.3-1.7-.1-.1-.1-.3 0-.4.1-.1.1-.3-.2-.4-1.1-1.8-2.4-3.4-4-4.9-1.6-1.5-3-3.2-4.4-5.1-1-.7-1.7-1.5-2.3-2.5-.5-1-1.2-1.8-1.8-2.7-1.1-1.4-1.8-2.3-2.1-2.7-.3-.4-.4-.7-.5-.8-.1-.1-.2-.4-.5-.8s-.9-1.4-1.8-2.9c-1.5-3.8-3.2-7.5-5-11s-3.6-7.3-5.2-11.6c-.7-2.1-1.2-3.6-1.4-4.5-.3-1-.8-2.6-1.4-4.9-.3-.7-.5-1.3-.8-1.8-.3-.5-.5-1.2-.8-1.8-.7-2.1-1.2-4.2-1.4-6.5-.3-2.3-.8-4.4-1.4-6.5-.1-.7-.4-1.3-.7-1.9-.3-.6-.5-1.3-.5-1.9-.3-.7-.3-1.4-.2-2.1.1-.7-.1-1.2-.8-1.4.3-2.2.3-4.4.1-6.6-.2-2.2-.5-4.3-.8-6.5-.3-2.1-.6-4.3-.7-6.5-.1-2.2-.1-4.4.2-6.8.4-2.3.8-4.7 1.2-7.1.4-2.4.8-5 1-7.7.7-3.1 1.7-6.7 3.1-10.6 1.4-3.9 2.9-7.1 4.5-9.7 1-1.1 2.2-2 3.8-2.7 1.6-.7 3-1.8 4.2-3.3.3.1.7.1 1.2 0s1.1-.3 1.5-.4c.5-.1.9-.2 1.2-.2.3 0 .5.2.5.6.5 0 1.1-.1 1.6-.3.5-.2 1-.2 1.4-.1-.1 1.2-.6 1.9-1.4 1.9-.8.1-1.7.2-2.7.5 1 .3 2.2.3 3.6.1 1.4-.2 2.8-.3 4-.3.4-.4.3-.6-.2-.5s-.7-.1-.4-.5c3.1-.5 5.9-.2 8.2 1.1 2.3 1.3 4.9 2.4 7.6 3.2.3.1.6.3 1.1.6.5.3.9.5 1.1.6 1.8 1.1 3.4 2 4.9 2.8 1.5.8 2.9 1.7 4.1 2.8.3.1.5.3.6.4.1.1.5.1 1-.2-.3.4-.3.8-.1 1 .2.3.4.5.5.8 0 .3.1.3.4.2.3-.1.5-.1.6 0 1.4 1.8 3 3.5 5 5.2 2 1.7 3.7 3.5 5 5.4 1.5 1.6 3 3.4 4.4 5.3 1.4 1.9 2.5 4.1 3.2 6.6.7 1.1 1.3 2.2 2 3.2.6 1 1.4 1.9 2.4 2.8 0 .3-.1.4-.3.5-.2.1-.3.2-.3.3 1.6 3.1 3 6.4 4.2 9.8 1.2 3.4 2.2 6.9 3.1 10.5.9 3.6 1.8 7.2 2.7 10.9.9 3.7 1.9 7.3 3 10.9.7 0 1.2 0 1.4.1.3.1.7.1 1.2.1.7.7 1.3 1.3 2 1.8s1.4 1.1 2.4 1.6c.3.1.6.2.9.1.3-.1.6-.1.9-.1 1.2.7 2.5 1.4 3.7 2.3 1.2.8 2.5 1.6 3.7 2.5.3.1.6.2 1 .1s.8 0 1 .3c.7.4 1.3.9 1.7 1.3.5.5 1.1.9 1.7 1.1.3.3.6.4 1 .4s.8.1 1.2.4c.8.5 1.8 1 3.1 1.3 1.2.3 2.5.8 3.9 1.3 1.4.3 2.5 1 3.5 2.1s2.3 1.6 3.9 1.4c4.1 1.5 7.9 3.3 11.4 5.5s6.6 4.9 9.3 8c-.4.7-.8.8-1 .4-.3-.4-.6-.4-1 0 .7.3 1.2.6 1.5 1.1.3.5.9.9 1.5 1.1.3.7.7 1.2 1.2 1.6.5.4 1.1.8 1.6 1.1.5.3 1 .8 1.2 1.3.3.5.2 1.2-.2 2.1.1.4.5.6 1 .6s1 .1 1.4.4c0 .3 0 .3-.1 0s-.2-.6-.4-1.1c-.2-.5-.4-.9-.5-1.2-.1-.3-.3-.5-.4-.5.7.7 1 1.5.9 2.4-.1.9.2 1.5.9 1.9-.7.7-.8 1.3-.4 1.7.4.5.7 1.1 1 1.7-.6.7-.9 1.5-1 2.4-.1.9 0 1.7.1 2.4-.4.1-.8.3-1 .4-.3.1-.6.2-1 .2-.1.3-.2.6-.1 1.1s0 .9-.3 1.1c.3.3.6.4.9.5.3.1.6.3.9.7-.1.3-.4.4-.8.5-.4.1-.5.4-.4.9-.7-.3-1.5-.3-2.5 0-.7.8-1.5 1.4-2.4 1.6-.9.3-1.3 1-1.3 2.3-.7 0-1.2-.2-1.5-.5-.3-.3-.9-.4-1.7-.1-1.5-1.5-3.3-2.5-5.3-3-2.1-.5-4.2-1.1-6.6-1.9v-.8c-4.1-.7-7.8-1.9-11-3.7-3.2-1.8-6.9-3.1-11.2-3.9-.1-.4-.3-.6-.6-.6s-.5-.1-.6-.4c-4-1.1-7.8-2.5-11.4-4.1-3.6-1.6-7.6-3-12-4.1-4.1-2.6-8.5-4.6-13.1-6.2-4.7-1.5-9-3.5-13.1-5.9-.7.3-1.1.3-1.1.1-.1-.2-.4-.2-.9-.1-.3-.7-.8-1.1-1.5-1.2-.8-.1-1.5-.3-2.2-.4-2.7-1.8-5.5-3.3-8.3-4.7-2.8-1.4-5.7-2.7-8.7-3.9 1 4.6 1.8 8.5 2.5 11.5s1.4 5.7 2.2 8.2c.8 2.5 1.7 4.9 2.9 7.4s2.7 5.4 4.6 8.8c1.9 1.8 3.7 3.6 5.2 5.3 1.6 1.8 3.5 3.4 5.6 4.9-.1.7.1 1.2.8 1.5.7.3 1.2.9 1.4 1.5.5.1.5.4 0 .8s-.8.8-.8 1c-.3 1.1-.8 2-1.4 2.8-.7.8-1.2 1.6-1.6 2.6-1.1.5-2 1.1-2.8 1.6-.8.5-1.5 1.1-2.4 1.6-2.2-1-4.2-2-6.2-3.2-1.9-1.2-3.6-2.6-4.9-4.4-.6.8-1.1.8-1.6.8m11.6-84c-1.1-2.3-2.3-4.3-3.5-6.1-1.2-1.7-2.5-3.3-3.9-4.9-1.4-1.6-2.8-3.2-4.2-5-1.4-1.8-2.9-4-4.4-6.6-1 .3-1.6.1-1.8-.6-.3-.7-.9-1.2-1.8-1.4 0-.7-.1-1.2-.4-1.6-.3-.4-.3-.9-.2-1.4-2.7 0-5.7.2-8.8.6.7 1.5.8 2.7.4 3.7s-.8 2.1-1 3.3c1.1.5 1.7 1.3 2 2.4.2 1 .2 2.2.1 3.4-.1 1.2-.3 2.5-.4 3.8-.1 1.3-.1 2.4.2 3.2 1.6 1.1 3 1.9 4 2.4s2 .9 3 1.1c1 .3 2 .6 3.1 1s2.5 1.1 4.3 2.1c.5 0 .9-.1 1-.3.1-.2.4-.3.8-.3 1.9 1.5 4.1 2.8 6.5 3.9 2.4 1.1 4.8 1.8 7.1 2.3.7-1.1.8-2.1.2-3.1-.8-1.3-1.5-1.8-2.3-1.9m-34.3-66.3c0-.1-.3-.2-.9-.2-.6 0-1 .2-1.1.6.3 0 .3.2.2.6.9 0 1.6-.3 1.8-1m115.6 25.7c.1.1 0 .3-.4.4-.4.1-.9.2-1.5.2h-1.8c-.6 0-1.1-.1-1.5-.2-1-.3-1.6-.6-2.1-1.1-.4-.5-.9-.9-1.4-1.1-.4-.1-1-.3-1.6-.4-.7-.1-1-.1-1 .2-1.1-.7-2.3-1.3-3.7-1.8s-2.3-1-2.7-1.4c-2.9-1.4-6.4-2.7-10.6-4-4.2-1.3-7.6-2.6-10.4-4-2.2-1.1-4.4-2.1-6.7-3.1s-4.6-1.8-7.1-2.5c-.3-.7-1.2-1.2-2.9-1.4-1.6-.3-2.9-1-3.7-2.1-5.2-1.5-10.1-3.2-14.7-5.1-4.6-1.9-9.3-3.4-14.3-4.5 0-.7.2-1.2.6-1.4-.8 0-1.3-.4-1.4-1.1-.1-.8-.1-1.3.2-1.7.5-.5.8-.5.8.2.3 0 .4-.2.3-.5-.1-.3.2-.4.7-.3-.1-.3-.2-.5-.3-.8-.1-.3-.3-.4-.7-.4.7-.4 1-.9.8-1.4-.1-.5.2-1 1-1.2-.1-.3-.2-.3-.3-.1-.1.2-.2.2-.5.1.3-.8.8-1.7 1.4-2.6.7-.9 1.2-1.9 1.4-3 1.5-1 3-1.6 4.4-1.8 1.4-.3 2.7-.9 3.8-1.8l4.2.9c1.4.3 2.9.7 4.4 1.1.5-.1.5-.3-.2-.5s-.8-.4-.2-.5c-1.1-.8-2-1.8-2.8-3.1-.8-1.2-1.7-2.5-2.8-3.9-.5.3-1.1-.1-1.6-1-.5-1-1.1-1.6-1.6-1.8-1.1-.8-2.4-1.6-3.8-2.5-1.4-.8-2.7-1.6-3.8-2.5l-1.8-1.8c-.5-.5-1.1-1-1.6-1.4-.5-.7-1.2-1.3-1.9-1.7-.8-.5-1.1-1.1-1.1-1.7-.7.3-1.3 0-1.8-.7-.5-.8-1-1.4-1.4-1.9.4-.1.6-.1.6 0 .1.1.4.2.9.2.3-.1.2-.4-.1-.7-.3-.3-.7-.5-.9-.5.5-.4.8-.8.8-1.2 0-.4.5-.5 1.6-.4.1-.5.1-1-.2-1.2-.3-.3-.1-.2.4.2 0-.3-.1-.6-.4-.9-.3-.3-.1-.5.6-.5-.1-.3-.1-.5 0-.6.1-.1.1-.3-.2-.6 1.1-.3 1.7-.8 1.8-1.6.1-.8.5-1.2 1.2-1.2-.1-.7-.2-1.1-.3-1.2-.1-.1 0-.3.3-.6.5.1 1.1-.1 1.5-.6.5-.5.7-.4.5.4.3-.3.4-.5.5-.6.1-.1.2-.1.5.2-.3-.1-.4-.3-.3-.6.1-.3 0-.5-.3-.6.3-.1.4-.4.5-.7.1-.3.2-.6.5-.7 1.4.3 2.2-.3 2.5-1.6.4 0 .8.2 1.1.6.3.4.7.4 1.1 0-.1-.1-.3-.2-.5-.3-.2-.1-.4-.2-.5-.3 0-.1.6-.2 1.7-.1 1.2.1 2.1.3 2.8.7 0-.3.2-.4.7-.5.5-.1.9 0 1.1.3 0-.3-.1-.5-.2-.6.7 0 1.9.4 3.6 1.3 1.7.9 3.2 1.5 4.4 1.7.5.5 1.4 1.1 2.6 1.6s2.1.8 2.8.6c0 .1-.1.2-.2.2 1.6.8 3.5 1.5 5.4 2.1s3.7 1.4 5.2 2.5c.1.1-.1.2-.6.2.1.4.4.5.9.3s.7-.4.7-.5c.3.3.7.4 1.3.3.6-.1.8.2.5.7.7-.4 1.2-.4 1.5 0 .3.4.8.5 1.3.2-.3.3-.3.5 0 .7.3.2.3.4.2.5 1.5.8 3.4 1.1 5.5.8-.3.5-.3.9 0 1 .3.1.3.4 0 .8.5-.3.9-.3.9 0 .1.3 0 .5-.1.8.1 0 .2-.1.2-.2.4-.1.5 0 .2.3s-.2.6.2.7h-.6c.4 1 .3 1.8-.3 2.7-.6.8-.6 1.3.1 1.4-.5.3-1.4.4-2.7.4.8.7 1 1.1.4 1.3s-.7.7-.4 1.3c-.5.3-1 .5-1.3.8-.3.3-.7.5-.9.8.4 0 .6.2.6.6-1.4.4-2.2.9-2.5 1.3-.3.5-1.2 1.1-2.7 1.7 1 1.4 2.1 2.6 3.4 3.7 1.3 1.1 2.4 2.4 3.4 3.9h-.4c.1.3.3.3.5 0s.5-.3.9 0c0 .3.2.5.6.8.4.3.8.5 1.1.8.3.3.6.6.8.9.2.3.2.6-.1.9.1.1.3.1.6-.2 1.5 1.2 3.1 2.5 4.8 3.7 1.7 1.2 3 2.4 4 3.5 0 .3 0 .3.1.2.1-.1.2-.2.5-.2 1.9 1.5 4.3 3.1 7.3 4.7 2.9 1.6 5.4 3 7.3 4.1 0 .1.4.3 1.1.6.8.3 1.3.5 1.5.8.1.3.1.3 0 .2-.1-.1.1-.1.8.2.7.4 1.6 1 2.7 1.7 1.1.8 2 1.5 2.7 2.2.8.7 1.5 1.4 2.2 2.1.6.7 1.3 1.4 2.2 2.1 1 .4 2 .9 3.1 1.3 1.1.5 2.1 1.1 3.1 1.9.7.4 1.6 1 2.9 1.8 1.2.8 2.5 1.1 3.9.8-.1 1.1-.3 2.3-.4 3.7-.1 1.4 0 2.5.4 3.5-.3.1-.7.3-1.3.4-.6.1-1.3.3-1.9.6.1.3.3.5.6.6.3.1.3.3.2.6-.7 0-1 .3-1 .8s-.3.6-.8.2c.1.7-.1 1.2-.7 1.4-.6.3-.8.6-.5 1-.7.3-1.2.4-1.4.5-.3.1-.7.1-1.2.1-.3.4-.3.7-.2.8.1.1.2.5.2 1-1.1 0-1.7.2-1.8.5-.1.3-.5.6-1 .9h.8c-.3.5-.8.9-1.4 1-.5 0-1-.1-1.4-.5M102 782.4c-.3-.3-.7-.7-1.3-1.2-.6-.5-1.3-1.1-1.9-1.5-.7-.5-1.3-.9-1.7-1.3-.5-.4-.7-.7-.7-.8-2.3-1.6-4.5-3.4-6.5-5.1-2-1.8-4.1-3.4-6.5-4.9-1.5-2.1-3.5-3.6-6-4.7s-4.3-2.2-5.4-3.3c-.3 0-.4.1-.5.3-.1.2-.2.4-.3.5-.7-.3-1.2-.5-1.5-.6-.3-.1-.5-.5-.5-1.2v-.6c-2-1.5-3.2-3.5-3.5-5.9-.3-2.5-.9-4.8-1.8-7 0-.1.2-.3.7-.6 0-2.1.4-4.2 1.1-6.5.8-2.3 1.7-4.1 2.8-5.6v-.2c0-.3-.1-.3-.4-.2-.3.1-.4.1-.4-.2.7-.7 1.4-1.9 2.2-3.7.8-1.8 1.1-2.9 1.1-3.5v-1.4c0-.3.3-1.1 1-2.6.7-1.4 1.3-2.4 1.8-3 0-.4-.1-.6-.2-.6 1-.3 1.4-1.1 1.4-2.5 0-.4-.1-.7-.2-.8.5 0 1.4-.6 2.6-1.7 1.2-1.2 2.3-2.4 3.5-3.8 1.2-1.4 2.6-3.2 4.2-5.5 2.3-2.6 4.9-4.8 7.8-6.6 2.9-1.8 6.1-2.7 9.7-2.7.5 0 1.1.1 1.5.2.5.1.9.2 1.3.2h1.6c3.6 0 6.6.8 9.1 2.4 2.5 1.6 4.8 3.4 6.7 5.4 1 .3 1.6.8 1.8 1.5.3.8.8 1.3 1.6 1.5l-.2.2c0 .4.7 1.3 2 2.8 1.3 1.4 2.7 2.9 4.1 4.4 1.4 1.5 2.8 2.8 4 3.9 1.2 1.1 1.7 1.5 1.4 1.2.8.5 1.7 1.4 2.7 2.7 1 1.2 1.9 2.6 2.9 4.2s1.9 3.2 2.8 4.9c.9 1.7 1.6 3.4 2.2 5 1.5 3 3.3 6 5.2 9.1 2 3.1 3 5.7 3 7.9 0 .5-.1 1-.2 1.2.3.1.5.3.6.5.1.2.3.4.6.5-.2.3-.3.4-.4.5s-.1.2-.1.5c1 2.6 1.5 5.5 1.5 8.6 0 1.9-.2 3.7-.6 5.3-.4 1.6-1.1 2.9-2.1 3.9v.8c0 1.4-.4 2.6-1.1 3.6-.8 1-1.6 1.9-2.6 2.8-1 .8-1.9 1.7-3 2.6-1 .9-1.9 1.9-2.6 3-1.5.7-2.8 1.2-3.8 1.5-1 .3-2.3 1.1-3.8 2.2h-.8c-.7 0-1.4.1-2.2.2-.8.1-1.5.2-2.2.2-.5-.3-1-.5-1.3-.6-.3-.1-.9-.2-1.5-.2h-5.5c-.7 0-1.4 0-2.2.1-.8.1-1.5.1-2.2.1-1.2 0-2.2-.1-2.9-.4h-.8c-2.3 0-4.7-.6-7.3-1.9-2.5-1.3-4.8-2.5-6.9-3.6-.1 0-.2 0-.3.1-.1.1-.2.1-.3.1h-.3zm24.4-27c-.7-1.6-1.3-3.2-1.9-4.6-.6-1.4-1.5-2.8-2.8-4l.2-.4c0-.7-.3-1.2-.9-1.5-.6-.3-.9-.9-.9-1.5v-.4c-.5-.3-1.4-1.2-2.5-2.8-1.1-1.6-2.3-3.3-3.5-5.1-1.2-1.8-2.5-3.6-3.7-5.3-1.2-1.7-2.3-2.9-3.1-3.6-.1-.1-.5-.6-1-1.3-.5-.8-1.2-1.5-2.1-2.4-.8-.8-1.8-1.6-2.9-2.3-1.1-.7-2.3-1-3.7-1-1.2 0-2.3.4-3.3 1.1-1 .8-1.8 1.6-2.7 2.7s-1.6 2.1-2.4 3.2c-.8 1.1-1.5 1.9-2.4 2.5 2.7 2.6 5.5 5.2 8.4 7.7 2.9 2.5 6.4 5.6 10.7 9.1 3.1 2.6 6.3 5 9.4 7.3 3.1 2.3 6.2 4.1 9.2 5.6v-.6c0-.7.2-1.1.6-1.2.7-.3 1-.7 1.3-1.2"/><path class="st0" d="M159.4 676.1c.1.3.2.3.3.1.1-.2.2-.2.5-.1-.1 1.1-.6 1.8-1.3 2.3-.8.4-1.4 1-1.9 1.6-1.8.1-3.1.5-4.1 1-.3 0-.4-.1-.4-.4-.1.1-.2.3-.2.4 0 .1-.1.3-.2.4-2.7.3-5 .6-6.9.9-1.8.3-4.2.4-7.1.3-.1 0-.3-.1-.6-.4-2.3.1-4.5-.1-6.6-.6-2-.5-4-1-5.9-1.2-.8-.5-1.8-1-3.1-1.2-1.2-.3-2.4-.4-3.5-.4v-.2c-2.2-.4-4.1-1-5.8-1.7-1.7-.8-3.4-1.5-5-2.2-.3 0-.4.1-.4.3 0 .2-.2.2-.6.1-1.6-.8-3.3-1.5-4.9-2.1-1.6-.5-3.2-1.2-4.7-1.8-.1.8-.2 1.4-.3 1.7-.1.3 0 .9.1 1.7-.4.7-.5 1.6-.3 2.9.2 1.2.3 2.2.3 2.9.1 1.5-.1 2.9-.8 4.3-.7 1.4-1.3 2.8-1.8 4.3-.3 0-.4 0-.5-.1-.1-.1-.2-.1-.5-.1-.3.3-.4.5-.5.8-.1.3-.2.5-.5.6-.8-.3-1.4-.1-1.6.4-.3.5-.8 1-1.4 1.2 0 .3.1.5.2.6.1.1.1.3 0 .6-.7-.3-1.1-.1-1.1.4-.1.5-.2 1-.3 1.4-.3.3-.5.3-.6.1-.1-.2-.3-.3-.4-.3-.3.4-.3.8 0 1.1.3.3.4.9.4 1.5-.3-.1-.4-.3-.5-.5-.1-.2-.2-.4-.5-.5-.4.4-.5.8-.4 1.2-1.1.3-1.8.3-2.3 0 0-.7.1-1 .2-1-.4-.3-.8-.4-1-.3-.3.1-.7.1-1.2.1.4-.7.7-1.5.8-2.4.1-.9-.3-1.5-1.2-1.9.4-.7.4-1.2.1-1.5-.3-.3-.5-.9-.5-1.5 0-.3-.1-.4-.2-.4s-.3-.1-.6-.2c-.3-1.5-.5-2.8-.7-3.9-.2-1.1-.6-2.3-1.1-3.7 0-1.1-.1-2.1-.3-2.9-.2-.8-.5-1.6-.8-2.5-.3-.8-.6-1.6-.8-2.5-.2-.8-.2-1.8-.1-2.9-1.2-1.1-1.9-2.2-2-3.4-.1-1.2-.3-2.4-.7-3.8-2.1-1-4.2-1.8-6.5-2.7-2.3-.8-4.3-1.8-6.3-2.9-.3.1-.5.1-.7 0-.2-.1-.4-.2-.7-.2-1.5-1.1-3.1-2-4.8-2.7-1.7-.7-3.4-1.6-5-2.7-.4-.3-.9-.5-1.3-.6-.5-.1-1-.3-1.5-.6-.4-.3-.8-.6-1.1-1-.3-.4-.9-.8-1.5-1-.7-.4-1.5-.8-2.4-1-.9-.3-1.7-.6-2.4-1-.1 0-.2-.1-.1-.2s0-.2-.1-.2c-.1-.1-.3-.2-.4-.1-.1.1-.3 0-.6-.1s-.5-.3-.7-.6c-.2-.3-.5-.5-.9-.6-.4-.3-.8-.4-1.2-.5-.4-.1-.8-.2-1.2-.5-.5-.3-1.2-.7-2.1-1.2-.7-.3-1.4-.5-2.1-.7-.7-.2-1.2-.5-1.4-.9-1-.1-1.7-.4-2.2-.8-.5-.4-1.2-.7-2.2-.8-.4-.4-1-.8-1.6-1.2l-2.1-1.2c-2.1-.8-4.1-1.8-6.2-3.1-1-.5-2-1-3.1-1.3-1.1-.3-2.1-.9-2.9-1.5-.5.1-1 .1-1.2 0-.3-.1-.5-.3-.8-.6H4.5c-1.1-1-1.8-2.1-2.3-3.3l-1.1-1.1c-.3-.3-.6-.9-.9-1.5.6-.1.9-.1.9 0 .1.1.2.3.5.4.3-.4.4-.7.5-.9.1-.2 0-.6-.1-1.1-.4-.3-.7-.6-.9-.9-.2-.3-.5-.6-.9-.7 0-.3.2-.5.5-.8.3-.3.7-.3.9 0 .3-.3.3-.4.1-.5-.2-.1-.3-.2-.3-.5s.1-.4.4-.5c.3-.1.4-.2.4-.5 0-.7-.1-1.2-.4-1.5-.3-.3-.4-.8-.4-1.3-.3.1-.5.2-.7.3-.2.1-.5 0-.7-.3.3-1.1.9-2.1 1.7-3 .9-.9 1.3-1.9 1.3-3 1-.5 1.7-1.2 2.3-2.1.5-.8 1.1-1.6 1.6-2.5 1.6 0 2.8-.5 3.5-1.6 1.1.1 1.9.1 2.4-.1s1.1-.1 1.7.3c.3-.1.5-.2.8-.3.3-.1.6-.1 1-.1 2.1.7 4.2 1.4 6.4 2.1 2.2.7 4 1.7 5.5 3.1 1.1 0 2.1.2 2.9.6.8.4 1.6.9 2.3 1.5.7.6 1.4 1.2 2.3 1.7.8.5 1.8.9 2.9 1 1.5.8 3.1 1.8 4.7 2.9 1-.1 1.7.1 2.3.7.5.6 1.4 1 2.5 1.1 0 .1 0 .2.1.2s.1.1.1.4c2.9 1.2 5.5 2.7 7.8 4.4 2.3 1.7 4.9 3.1 7.8 4.2.3.3.5.5.8.7.3.2.8.4 1.4.5.3-1.8.3-3.4.2-4.8-.1-1.4-.3-2.7-.6-3.8-.1-.7-.2-1.4-.1-2.1.1-.7.1-1.4.1-2.1-.3-3.1-.5-6.8-.6-11-.1-4.2-.2-8.4-.2-12.8.1-.1.3-.2.6-.1s.5 0 .8-.3c0-.3-.1-.5-.4-.6-.3-.1-.3-.3 0-.6 1.1-.3 1.9-.1 2.4.5s1 1.2 1.5 1.7c.3-.8.5-1.4.6-1.6.3 0 .4-.1.4-.2s.1-.1.4 0c.3.3.3.5.2.6-.1.1-.2.3-.2.6 1.4.4 2.2 1.2 2.4 2.5.2 1.2.5 2.4.9 3.5-.3-.1-.4.1-.4.6 0 .4.2.7.6.8.4.1.6.5.6 1 .4 0 .6 0 .7.1.1.1.2 0 .3-.3-.1-.3-.3-.5-.6-.7-.3-.2-.4-.5-.4-.9.4 0 .6.1.6.3 0 .2.1.3.4.3.3 0 .4-.1.3-.4-.1-.3-.1-.5-.1-.8.3.1.5.2.7.3.2.1.4.2.5.3.4.8.8 1.6 1 2.4.3.8.8 1.4 1.4 1.9.3 1 .5 1.8.6 2.7.1.8.4 1.6.8 2.3-.3.7-.1 1.4.5 2.2.6.8 1.1 1.6 1.3 2.6 0 .3 0 .5-.1.7-.1.2 0 .4.1.7.3 1.2.7 2.6 1.3 4 .6 1.4.9 2.9.7 4.4 0 .1.1.2.2.1s.3 0 .4.1c-.1 3.1.2 6.2 1.1 9.2.9 3 1.7 5.9 2.4 8.8 1.5.7 2.8 1.4 3.8 2.1 1 .7 2.3 1.2 3.8 1.4 1 .5 1.9 1.1 3 1.5 1 .5 2 .9 3 1.1 1.2.5 2.4 1.2 3.5 1.9 1.1.8 2.5 1.3 4.3 1.5 1.8 1.5 3.8 2.6 6.2 3.3 2.3.7 4.6 1.5 6.8 2.5 1.1.1 2.4.4 3.9.8s2.9.9 4.1 1.4c2.5.5 5 1.2 7.5 2.1 2.5.8 5 1.4 7.3 1.6 1.2.3 2.4.5 3.4.6 1 .1 2.1.3 3.2.6.4 0 .7.2.8.6.3.1.4.1.4-.1s.1-.3.4-.3c2.3 1.8 4.9 3.1 7.8 4.1.1.1.2.4.2.8.3.3.5.3.8.2.3-.1.6-.1 1 .2 0 .5-.2.9-.6 1-.4.1-.7.3-1 .6.8.4 1.3.3 1.6-.4.1.5.1 1 0 1.2.3 0 .5-.1.7-.2.2-.1.4-.1.5.2 0 .4-.2.6-.8.6h-1.4c.5.3.9.5 1 .6 0 .5-.4.7-1.2.4 0 .7.1 1 .4 1-.5.5-1.1.9-1.5 1-.5.1-1.1.3-1.9.6l-.2.2c0 .1.1.2.2.2-.3.1-.5.2-.6.3.1.4-.2.5-.4.6M87 692.5c0 .4.2.6.6.6 0-.4-.2-.6-.6-.6m4.1-3.7c-.3 0-.5.3-.8.8.2.1.5-.2.8-.8m4.5-5.9c-.3 0-.4.1-.5.4-.1.3 0 .5.3.6.1-.1.2-.3.3-.6.1-.3 0-.4-.1-.4m11.3-165.1c-.1.1-.2.2-.2.3 0 .1-.1.2-.2.3.8-.5.9-1.3.2-2.4-.7-1-1-1.9-1-2.8.3 0 .4.1.5.2.1.1.2.2.3.2.4-.3.5-.5.2-.7-.3-.2-.3-.4 0-.7.4-.1.7 0 .8.3.1.3.1.5-.2.5.1.3.3.4.5.4s.3.1.3.4c.5-.1 1.1-.1 1.6 0 0-.5-.1-1.1-.2-1.6.5.1 1.2.2 2.1.2.4.7.9 1.2 1.3 1.5.5.3 1 .9 1.5 1.5.1.3.1.4-.1.4s-.3.1-.3.4h.8c-.1.7 0 1.1.3 1.1.3.1.7.2 1.1.5 0-.4-.1-.7-.3-.8-.2-.1-.4-.4-.7-.8.3 0 .4-.1.5-.4.1-.3.2-.4.5-.4 0 .4.1.7.2.8.1.1.2.4.2.8.1 0 .2 0 .3.1.1.1.2.1.5.1-.1.4 0 .6.3.6s.6.1.9.2c0 1.1.3 1.9.8 2.6.5.6.8 1.4.6 2.4.5.3.8.7.8 1.3s.3 1.1 1 1.3c.1.3.1.4 0 .5-.1.1-.2.2-.2.3.7.4 1.1 1 1.2 1.6.1.7.4 1.2.8 1.6v-.2c.8.3 1.4.7 1.8 1.2.4.5.4 1 0 1.4.5.3 1 .6 1.3 1.1.3.5.7.9 1.1 1.1.1-.3 0-.6-.4-1.1-.4-.5-.3-.9.2-1.1.7.7 1.2 1.5 1.6 2.5.4 1 .8 1.9 1 2.9.5 0 .7-.1.5-.2-.2-.1-.2-.2.1-.2.3.3.4.5.5.8.1.3.4.4 1.1.4-.3 1.4.3 2 1.6 1.8.1.3 0 .5-.4.6 1.5 1.9 2.8 4 3.9 6.3s2.3 4.4 3.7 6.5c0 1.5.8 2.9 2.3 4.1.7 2.1 1.5 4 2.6 5.8 1 1.8 2.1 3.7 3.2 5.4.3 0 .3-.1.2-.2-.1-.1-.2-.3-.2-.4 1.2 1.5 2.2 3.2 2.9 5 .7 1.8 1.6 3.5 2.9 5 .1 1.8.5 3.4 1.2 4.9.7 1.5 1.2 3 1.4 4.5.1.3.2.6.1 1.1-.1.5 0 1 .1 1.5.3 1.1.3 2.6.2 4.6-.1 2-.3 3.7-.6 5-.1.3-.3.6-.5.9-.2.3-.4.7-.7 1.1 0 .1.1.3.2.5s.1.4-.2.5c-.1.3-.4.5-.8.8-.4.3-.8.7-1 1.2-.4.7-.9 1.4-1.3 2.1-.5.7-.9 1.4-1.1 2.1-.3 0-.4.1-.5.2-.1.1-.2.2-.5.2 0 .4-.1.6-.2.6-.3.1-.5.2-.6.1-.1-.1-.3-.1-.4-.1-.1.3-.1.4.1.3.2-.1.2 0 .1.1-1.5 1.1-3.1 2.1-4.8 2.9-1.7.8-3.2 1.8-4.4 2.9-2.1.3-3.6 1-4.7 2.1 0 .1.1.1.3-.1.2-.2.3-.2.3.1-2.1 1.4-4.8 2-8.1 1.9-3.4-.1-6.4-.7-9.1-1.7-.5-.4-1.2-.8-1.8-1-.7-.3-1.2-.8-1.4-1.4-3.8-1.5-7.1-3.4-9.7-5.7-2.7-2.3-5.2-4.6-7.7-6.8-.5-.4-1-.9-1.4-1.3-.4-.5-1-1-1.6-1.5-.5-.4-1.2-1-1.8-1.8-.7-.7-1.4-1.4-2.1-2.2-.7-.8-1.4-1.5-2.1-2.4-1.1-1.4-2.2-2.5-3.4-3.4-1.2-.9-2.1-2-2.8-3.4-.3 0-.4 0-.4-.1s-.1-.1-.4-.1c-.4-1-.9-1.8-1.5-2.6s-1.5-1.5-2.6-2.2c.1-1.1-.2-1.9-1-2.4s-1.4-1.1-1.8-1.7c-.3-.5-.5-1.1-.6-1.5-.1-.5-.4-.9-.8-1.3-.5-.5-1-1-1.2-1.4-1.4-2.1-2.6-4.1-3.8-6.2-1.2-2.1-2.3-4.2-3.4-6.6-.7-1.5-1.5-3.1-2.5-4.7s-1.7-3.4-2.3-5.3c0-.4-.1-.6-.4-.6.1-.3.1-.6-.1-.9-.2-.3-.4-.6-.5-.9-.4-1.1-.8-2.2-1.1-3.4-.4-1.2-.7-2.3-1-3.4 0-1.1 0-2.4.1-3.8s.5-2.7 1.2-3.8c.4-.1.6-.1.6 0v.4c.4-.5.8-1.2 1.2-1.8.4-.7 1.1-1.2 2.1-1.4.3-.3.5-.7.8-1.2 1.2-.4 1.9-1 2.1-1.6.1.3.2.3.3.2.1-.1.2-.2.3-.2.4-.5.9-.9 1.3-1 .5-.1 1.1-.3 1.7-.6.7-.3 1.2-.6 1.6-1 .4-.4 1-.8 1.6-1 .4-.3.9-.4 1.3-.4.5 0 .9-.1 1.1-.4.7 0 1.2.1 1.4.2.3-.5.6-.9 1.1-.9s1 0 1.4.1l1.5.3c.5.1 1.1 0 1.6-.3.3 0 .5.1.7.3.2.2.5.2.9.1 1.1 1.1 2.4 2.1 3.8 2.9 1.4.8 2.7 1.7 3.8 2.7.1.3.3.4.4.5.1.1.3.2.4.5.7.5 1.3 1.1 1.8 1.5.5.5 1.1 1.1 1.6 1.7.3.3.5.6.6.9.1.3.5.6 1 .9.3.3.6.6.9 1 .3.4.7.8.9 1 .3.7.6 1.5.9 2.4.3.9.9 1.5 1.5 1.9 1.2 2.2 2.5 4.3 3.9 6.4 1.4 2.1 2.6 4.2 3.7 6.6.3.7.4 1.3.5 1.8.1.5.4 1 .9 1.4 0 .7.2 1.3.7 1.8.5.5.8 1.2.9 2.1 0 .4.2.7.6.8l-.2.6c1 1.4 1.7 2.8 2.2 4.2.5 1.4.9 2.9 1.3 4.4.1.5.1.8-.2.8.1.7.3 1.2.6 1.5.3.3.3.9.2 1.5.3.3.5.5.6.8 0 1.1.1 2.1.4 3.1.3 1 .3 2 0 3.1 0 .3.1.4.2.4s.3.1.4.4c-.3.7-.4 1.4-.4 2.1 0 .7-.3 1.2-1 1.4 0 .3 0 .5.1.8.1.3 0 .6-.3 1 1.1 1.1 2.3 2.2 3.5 3.3 1.2 1.1 2.7 2.1 4.3 2.9 0 .1 0 .2-.1.2s-.1.1-.1.2c.5.1.9.4 1.1.7.2.3.8.5 1.7.5.4.8 1.2 1.3 2.3 1.4 1.1.1 2 .5 2.7 1.2 0-1.5-.2-3.1-.6-4.8-.4-1.7-.7-3.3-.8-4.8-.1-.3-.3-.4-.5-.4s-.4-.1-.5-.4c.1-1 0-1.7-.3-2.3-.3-.5-.5-1.2-.5-2.1 0-.1-.3-.3-.8-.6.1-.7 0-1.5-.4-2.5s-.8-1.8-1.2-2.5c0-1.5-.4-3-1.1-4.4-.8-1.4-1.3-2.9-1.5-4.4-.8-.7-1.2-1.6-1.2-2.8 0-1.2-.5-1.9-1.4-2.4-.3-1.1-.5-2.1-.7-3.1-.2-1-.7-1.9-1.3-2.9 0-.1.1-.2.2-.2s.1-.1 0-.4h-.4c-.5-.8-.9-1.8-1-2.9-.1-1.1-.7-2-1.6-2.7 0-1.9-.5-3.6-1.4-5.1v-.2c0-.1 0-.2.1-.2s.1-.1.1-.2-.1-.2-.2-.3c-.1-.1-.3-.2-.4-.5-.5-1.9-1.3-3.8-2.2-5.7-.9-1.9-1.9-4-3.2-6.4.3-.3.3-.5.1-.8-.2-.3-.2-.6.1-1-.7-1.1-1.1-2.2-1.2-3.3-.1-1.1-.4-2.3-.8-3.5-.3-.8-.6-1.6-1-2.5-.4-.8-.6-1.7-.6-2.7 0-1.1-.3-2.1-1-3.1s-1.2-2-1.4-3.1c0-.5 0-1.1-.1-1.7-.1-.6-.1-1.1-.1-1.5.4 0 .6.2.6.5s.2.5.6.5c-.3.8-.1 1.5.5 2.1s.8 1.2.5 2.1c.3.1.4.3.4.4.2.8.4.9.7.9M98.7 572c-.7-.4-.8-1-.3-1.6.5-.7.4-1.2-.1-1.6.5.1.8.1.8 0s-.1-.3-.3-.5l-.6-.6c-.2-.2-.3-.4-.3-.5-.1-.1-.2-.3-.1-.5s.1-.4.1-.5c.1-.8-.3-1.4-1.2-1.8-1-.4-1.4-1-1.2-1.6-.7-.5-1-1.1-1-1.7s-.4-1.1-1.2-1.5c0-.8-.3-1.8-.8-3.1-.5-1.2-1.6-2.8-3.3-4.7-.5-.3-1.6-.8-3.1-1.6s-2.4-1.4-2.7-1.8c-.3.3-.3.6-.2 1.1.1.5.3 1 .6 1.4.3.5.5 1 .7 1.4.2.5.2.8.1.9.3.3.8.9 1.5 1.8.8 1 1.1 1.6 1.1 1.8.1 1 .7 1.7 1.5 2.4.9.6 1.2 1.3.9 2.2.5.3 1 .6 1.4 1 .4.4.5.9.2 1.4l.8.8c.3.3.4.7.4 1.2 0 .1.1.2.3.1.2-.1.3 0 .3.1-.1.4 0 .7.3.9s.5.4.5.7c-.1 0-.2.1-.2.2h.4c.7.8 1.3 1.7 1.7 2.6.5.9 1.3 1.7 2.4 2.4v.4h.6c0-.3-.1-.4-.2-.5.1-.3.1-.5.2-.7"/><path class="st0" d="M45.1 455.1c.3-.3.2-.5-.1-.6-.3-.1-.4-.4-.3-.8.1 0 .3.1.5.2 0-.3-.1-.5-.2-.6-.1-.1-.2-.3-.4-.6.3-.3.5-.3.6 0 .1.3.4.3.6 0 .3 0 .4.2.4.5s.1.4.4.1c.1-.3 0-.5-.4-.8-.4-.3-.5-.5-.4-.8.5 0 1 .1 1.2.2-.3-.8-.8-1.4-1.5-1.6-.7-.3-1-.8-1-1.4.3-.1.5-.3.7-.4.2-.1.5-.3.7-.6-.1-.1-.2-.4-.2-.7 0-.3-.1-.7-.2-1.1.3-.5.2-.9-.2-1.1-.4-.2-.7-.5-.7-.9.1-.3.6-.2 1.3.2.1-.3.1-.5-.1-.7-.2-.2-.5-.4-.8-.5.7-.4 1.3-1 1.7-1.8.5-.8 1.1-1.6 1.7-2.3 0-.1-.1-.2-.3-.1-.2.1-.3 0-.3-.3 1.1-.3 1.7-.5 1.8-.8 1.5-.4 2.7-.9 3.7-1.4 1-.5 2.1-.8 3.3-.8.5.1 1.1.2 1.6.3.5.1 1 .2 1.2.3 1.6.4 3.1.8 4.5 1 1.4.3 2.7.2 3.9-.2 1.8-.5 3.6-.8 5.5-.6 0 .3 0 .4.1.4s.1.1.1.2c1.8 0 3.4.3 4.9.9 1.5.6 3 1.3 4.5 1.9 1.8.7 3.5 1.2 5.2 1.5 1.7.3 3.4.9 5 1.7.3 0 .4 0 .4.1s.1 0 .4-.1c.3.4.7.6 1.3.6.6 0 1.1.2 1.3.6 0 .3-.1.5-.4.8.3 1.1.9 1.9 1.8 2.5 1 .5 1.6 1.4 1.8 2.5-.4-.1-.5-.1-.3.1s.2.3-.1.3c-.1.3-.1.4.1.4s.3.1.3.2c0 .5-.3.8-.8.8.3.3.3.4.1.4s-.2.1.1.4c.1.3.1.4-.2.3-.3-.1-.5 0-.6.3.3.7.1 1.3-.4 1.7-.5.5-.8 1.1-.8 1.7-.7.5-1.1 1.3-1.2 2.3-.1 1-.6 1.7-1.4 2.3-.7.3-1.2.6-1.5.9-.3.3-.7.6-1.1.9-1.1.1-1.8.4-2.1.8-.3.4-.8.6-1.6.6-.4.7-.9 1.1-1.3 1.3-.5.2-1.1.4-1.7.7-.4-.3-1-.3-1.6-.2-.7.1-1.2.3-1.4.6-.8-.4-1.6-.5-2.5-.4.3 1 .6 1.9.9 2.8.3.9.7 1.9.9 3 1.5 2 2.9 4.1 4.1 6.2 1.2 2.1 2.8 3.8 4.7 5.3 0 .1 0 .2-.1.2s-.1.1-.1.2c1.5 1.4 3 2.6 4.4 3.8 1.4 1.2 2.8 2.4 4 3.8.4-.1.7-.1.8 0 1.8-2.3 2.9-5.8 3.3-10.5.1-.3.2-.6.1-.9-.1-.3-.1-.7-.1-1.1.1-.5.3-1.3.5-2.2.2-.9.3-1.8.3-2.8l.3-4.2c.1-1.4.2-2.8.5-4.2.3-1.5.5-3.1.7-4.8.2-1.7.4-3.4.7-5 0-.3-.1-.5-.3-.6-.2-.1-.3-.3-.3-.4.1-.3.3-.5.4-.8.1-.3.2-.5.2-.8.3-.7.3-1.4.2-2.3-.1-.8-.3-1.6-.6-2.3-.3-2.3.1-3.8 1.2-4.5-.1-1-.1-1.9 0-2.9l.4-2.9c.1-.3.1-.6 0-.9-.1-.3-.1-.7 0-.9.1-.4.4-.8.7-1 .3-.3.6-.7.7-1.2.1-.1.2-.3.1-.4-.1-.1 0-.2.1-.2.5-1.1 1-2 1.4-2.8.4-.8.9-1.5 1.4-2.2.8-.3 1.3-.7 1.5-1.2.2-.5.6-.9 1.1-1 .1 0 .1 0-.1-.1s-.2-.2.1-.3c1.2.5 2.9.5 4.9-.2.3-.1.5-.3.8-.6h.8c.4 0 .7-.1.8-.4 1.1.1 2.1.4 2.9.7.8.3 1.7.6 2.7.9 0 .4.1.8.2 1 .1.3.2.7.2 1.2 1.2 1 2.1 2.1 2.7 3.5.5 1.4 1.4 2.6 2.5 3.7.5 1.6 1 2.7 1.2 3.3 1.2 3.7 2.5 7.3 3.9 11 1.4 3.6 2.5 7.4 3.5 11.4 0 .3.1.4.4.3.3-.1.4 0 .4.3 0 .4-.1.6-.4.6 1.1 2.1 1.8 4.1 2.3 6.1.4 2 1 4.1 1.8 6.3 0 .1.1.2.4.2 1.2 4.6 2.8 9.2 4.7 13.5.5 1.5 1.1 2.8 1.6 4 .5 1.2.8 2.5.8 4 .1 0 .2 0 .3.1.1.1.2.1.5.1 0 .7-.1 1.2-.2 1.4.3 1.5.6 2.9.9 4.2.3 1.3.7 2.5 1.1 3.6.1.4.3.8.5 1.2.2.4.4.8.7 1.2.3 1.1.4 2.2.3 3.2-.1 1 .2 1.9.9 2.8-.1 1.5 0 3 .3 4.5s.4 3.2.3 5.1c-.7 0-1.1-.1-1.3-.4-.2-.3-.4-.4-.7-.4.3-.3.4-.6.3-1-.1-.4-.2-.7-.5-.8-.3-.3-.5-.3-.7-.2-.2.1-.4.2-.7.2 0 .4 0 .9.1 1.4s.2 1 .5 1.2c.1.3.4.5.7.8.3.3.4.6.3 1-.3 0-.6-.1-.9-.3-.3-.2-.6-.4-.9-.7v.2h-.4c.1.3.1.5 0 .6-.1.1-.1.3.2.4-.1.3-.3.3-.5.2-.2-.1-.4-.1-.5 0 .1.4.3.5.5.4.2-.1.4-.2.7-.2.3.7.2 1.1-.1 1.2-.3.1-.4.3-.1.6-.5.3-1.1.2-1.5-.3-.5-.5-1-.5-1.5-.1.1.3.3.5.4.7s.1.4 0 .7c-.5.1-1.1.1-1.7-.1-.6-.2-1.2-.2-1.7.1-.3-.3-.6-.5-.9-.8-.3-.3-.5-.5-.5-.8-1 .1-1.6-.1-1.8-.7-.3-.6-.8-.9-1.4-.7-.3-.7-.5-1.2-.7-1.5-.2-.3-.2-.9-.1-1.5-1.1-2.1-1.8-4-2.3-5.7-.4-1.8-1.1-3.6-2.1-5.5-.4.1-.5.3-.2.4.3.1.3.3.2.4-1.5-2.2-2.7-4.6-3.7-7.4-1-2.7-2.2-5.1-3.7-7.2.1-.3.1-.4 0-.5-.1-.1-.1-.2.2-.3-.7-1.2-1.2-2.6-1.6-4-.4-1.4-1.2-2.6-2.3-3.4 0-.3-.1-.6-.3-.9-.2-.3-.3-.7-.3-.9-1.2-1.8-2.3-3.7-3.3-5.8-1-2.1-2.1-4.1-3.3-6-.3.3-.4.5-.4.8 0 .1 0 .3.1.4.1.1.1.3.1.4-.3.5-.4 1.2-.3 1.9.1.8.1 1.5.1 2.2-.1.7-.3 1.4-.5 2.2-.2.8-.4 1.5-.7 2.2-.3.7-.4 1.3-.3 1.9.1.6 0 1.3-.3 1.9-.5.7-.9 1.5-1 2.5-.1 1-.3 1.8-.6 2.5-1.6 1-2.7 2.2-3.3 3.8-.5 1.6-1.6 2.7-3.3 3.4-.7 2.1-1.8 3.3-3.5 3.8-1.6.5-3.2 1.2-4.7 2.2 0 .3.2.3.5.2.3-.1.6-.1.7.2-1.1.5-2.5.7-4.3.4-1.8-.3-3.2-.5-4.3-.6-.7-.3-1.3-.4-2-.4-.6 0-1.2-.3-1.7-.8-.7.7-1.1 1.2-1.2 1.4-.7.1-1.2.1-1.4-.2-.3-.3-.6-.7-1-1.2-1-.7-2.2-1.2-3.7-1.4-.7-1-1.5-1.7-2.6-2.3s-2-1.2-2.8-1.8c.1 0 .2-.1.2-.2-1.1-1.4-2.3-2.8-3.5-4.2-1.2-1.4-2.5-2.8-3.7-4.2-.3-1-.8-1.8-1.6-2.7-1.1-1.5-2.3-2.9-3.6-4.1-1.3-1.2-2.4-2.6-3.2-4.1-.3-.1-.4-.4-.5-.7-.1-.3-.4-.5-.9-.5-.3-1.4-.9-2.6-1.8-3.8-1-1.2-1.6-2.6-2.1-4.4 0-.1-.3-.4-1-.8-.3-1.9-.9-3.8-2-5.6s-1.2-3.7-.5-5.6c-.7-.1-1.2-.2-1.5-.1-.3.1-.9.1-1.7.1-.3-.3-.3-.5 0-.8-.8-.5-1.5-1.2-2.2-1.9-.6-.8-1.5-1.3-2.8-1.7 0-.5-.2-.9-.6-1-.4-.1-.7-.4-1-.8l1.1-.3zm106.1 71.8c-.4-.1-.6-.1-.6.2s.1.4.4.4c.2-.2.2-.4.2-.6m-12.5-15.6c0 .5.3.8.8.8 0-.5-.2-.8-.8-.8m20.7-102.7c.1.3.2.3.3.1.1-.2.2-.2.5-.1-.1 1.1-.6 1.8-1.3 2.3-.8.4-1.4 1-1.9 1.6-1.8.1-3.1.5-4.1 1-.3 0-.4-.1-.4-.4-.1.1-.2.3-.2.4 0 .1-.1.3-.2.4-2.7.3-5 .6-6.9.9-1.8.3-4.2.4-7.1.3-.1 0-.3-.1-.6-.4-2.3.1-4.5-.1-6.6-.6-2-.5-4-1-5.9-1.2-.8-.5-1.8-1-3.1-1.2-1.2-.3-2.4-.4-3.5-.4v-.3c-2.2-.4-4.1-1-5.8-1.7-1.7-.8-3.4-1.5-5-2.2-.3 0-.4.1-.4.3 0 .2-.2.2-.6.1-1.6-.8-3.3-1.5-4.9-2.1-1.6-.5-3.2-1.2-4.7-1.8-.1.8-.2 1.4-.3 1.7-.1.3 0 .9.1 1.7-.4.7-.5 1.6-.3 2.9.2 1.2.3 2.2.3 2.9.1 1.5-.1 2.9-.8 4.3-.7 1.4-1.3 2.8-1.8 4.3-.3 0-.4 0-.5-.1-.1-.1-.2-.1-.5-.1-.3.3-.4.5-.5.8-.1.3-.2.5-.5.6-.8-.3-1.4-.1-1.6.4-.3.5-.8 1-1.4 1.2 0 .3.1.5.2.6.1.1.1.3 0 .6-.7-.3-1.1-.1-1.1.4-.1.5-.2 1-.3 1.4-.3.3-.5.3-.6.1-.1-.2-.3-.3-.4-.3-.3.4-.3.8 0 1.1.3.3.4.9.4 1.5-.3-.1-.4-.3-.5-.5-.1-.2-.2-.4-.5-.5-.4.4-.5.8-.4 1.2-1.1.3-1.8.3-2.3 0 0-.7.1-1 .2-1-.4-.3-.8-.4-1-.3-.3.1-.7.1-1.2.1.4-.7.7-1.5.8-2.4.1-.9-.3-1.5-1.2-1.9.4-.7.4-1.2.1-1.5-.3-.3-.5-.9-.5-1.5 0-.3-.1-.4-.2-.4s-.3-.1-.6-.2c-.3-1.5-.5-2.8-.7-3.9-.2-1.1-.6-2.3-1.1-3.7 0-1.1-.1-2.1-.3-2.9-.2-.8-.5-1.6-.8-2.5-.3-.8-.6-1.6-.8-2.5-.2-.8-.2-1.8-.1-2.9-1.2-1.1-1.9-2.2-2-3.4-.1-1.2-.3-2.4-.7-3.8-2.1-1-4.2-1.8-6.5-2.7-2.3-.8-4.3-1.8-6.3-2.9-.3.1-.5.1-.7 0-.2-.1-.4-.2-.7-.2-1.5-1.1-3.1-2-4.8-2.7-1.7-.7-3.4-1.6-5-2.7-.4-.3-.9-.5-1.3-.6-.5-.1-1-.3-1.5-.6-.4-.3-.8-.6-1.1-1-.3-.4-.9-.8-1.5-1-.7-.4-1.5-.8-2.4-1-.9-.3-1.7-.6-2.4-1-.1 0-.2-.1-.1-.2s0-.2-.1-.2c-.1-.1-.3-.2-.4-.1-.1.1-.3 0-.6-.1s-.5-.3-.7-.6c-.2-.3-.5-.5-.9-.6-.4-.3-.8-.4-1.2-.5-.4-.1-.8-.2-1.2-.5-.5-.3-1.2-.7-2.1-1.2-.7-.3-1.4-.5-2.1-.7-.7-.2-1.2-.5-1.4-.9-1-.1-1.7-.4-2.2-.8-.5-.4-1.2-.7-2.2-.8-.4-.4-1-.8-1.6-1.2l-2.1-1.2c-2.1-.8-4.1-1.8-6.2-3.1-1-.5-2-1-3.1-1.3-1.1-.3-2.1-.9-2.9-1.5-.5.1-1 .1-1.2 0-.3-.1-.5-.3-.8-.6H4.5c-1.1-1-1.8-2.1-2.3-3.3l-1.1-1.1c-.3-.3-.6-.9-.9-1.5.6-.1.9-.1.9 0 .1.1.2.3.5.4.3-.4.4-.7.5-.9.1-.2 0-.6-.1-1.1-.4-.3-.7-.6-.9-.9-.2-.3-.5-.6-.9-.7 0-.3.2-.5.5-.8.3-.3.7-.3.9 0 .3-.3.3-.4.1-.5-.2-.1-.3-.2-.3-.5s.1-.4.4-.5c.3-.1.4-.2.4-.5 0-.7-.1-1.2-.4-1.5-.3-.3-.4-.8-.4-1.3-.3.1-.5.2-.7.3-.2.1-.5 0-.7-.3.3-1.1.9-2.1 1.7-3 .9-.9 1.3-1.9 1.3-3 1-.5 1.7-1.2 2.3-2.1.5-.8 1.1-1.6 1.6-2.5 1.6 0 2.8-.5 3.5-1.6 1.1.1 1.9.1 2.4-.1s1.1-.1 1.7.3c.3-.1.5-.2.8-.3.3-.1.6-.1 1-.1 2.1.7 4.2 1.4 6.4 2.1 2.2.7 4 1.7 5.5 3.1 1.1 0 2.1.2 2.9.6.8.4 1.6.9 2.3 1.5.7.6 1.4 1.2 2.3 1.7.8.5 1.8.9 2.9 1 1.5.8 3.1 1.8 4.7 2.9 1-.1 1.7.1 2.3.7.5.6 1.4 1 2.5 1.1 0 .1 0 .2.1.2s.1.1.1.4c2.9 1.2 5.5 2.7 7.8 4.4s4.9 3.1 7.8 4.2c.3.3.5.5.8.7.3.2.8.4 1.4.5.3-1.8.3-3.4.2-4.8-.1-1.4-.3-2.7-.6-3.8-.1-.7-.2-1.4-.1-2.1.1-.7.1-1.4.1-2.1-.3-3.1-.5-6.8-.6-11-.1-4.2-.2-8.4-.2-12.8.1-.1.3-.2.6-.1s.5 0 .8-.3c0-.3-.1-.5-.4-.6-.3-.1-.3-.3 0-.6 1.1-.3 1.9-.1 2.4.5s1 1.2 1.5 1.7c.3-.8.5-1.4.6-1.6.3 0 .4-.1.4-.2s.1-.1.4 0c.3.3.3.5.2.6-.1.1-.2.3-.2.6 1.4.4 2.2 1.2 2.4 2.5.2 1.2.5 2.4.9 3.5-.3-.1-.4.1-.4.6 0 .4.2.7.6.8.4.1.6.5.6 1 .4 0 .6 0 .7.1.1.1.2 0 .3-.3-.1-.3-.3-.5-.6-.7-.3-.2-.4-.5-.4-.9.4 0 .6.1.6.3 0 .2.1.3.4.3.3 0 .4-.1.3-.4-.1-.3-.1-.5-.1-.8.3.1.5.2.7.3.2.1.4.2.5.3.4.8.8 1.6 1 2.4s.8 1.4 1.4 1.9c.3 1 .5 1.8.6 2.7.1.8.4 1.6.8 2.3-.3.7-.1 1.4.5 2.2.6.8 1.1 1.6 1.3 2.6 0 .3 0 .5-.1.7-.1.2 0 .4.1.7.3 1.2.7 2.6 1.3 4 .6 1.4.9 2.9.7 4.4 0 .1.1.2.2.1s.3 0 .4.1c-.1 3.1.2 6.2 1.1 9.2.9 3 1.7 5.9 2.4 8.8 1.5.7 2.8 1.4 3.8 2.1 1 .7 2.3 1.2 3.8 1.4 1 .5 1.9 1.1 3 1.5 1 .5 2 .9 3 1.1 1.2.5 2.4 1.2 3.5 1.9 1.1.8 2.5 1.3 4.3 1.5 1.8 1.5 3.8 2.6 6.2 3.3 2.3.7 4.6 1.5 6.8 2.5 1.1.1 2.4.4 3.9.8s2.9.9 4.1 1.4c2.5.5 5 1.2 7.5 2.1 2.5.8 5 1.4 7.3 1.6 1.2.3 2.4.5 3.4.6 1 .1 2.1.3 3.2.6.4 0 .7.2.8.6.3.1.4.1.4-.1s.1-.3.4-.3c2.3 1.8 4.9 3.1 7.8 4.1.1.1.2.4.2.8.3.3.5.3.8.2s.6-.1 1 .2c0 .5-.2.9-.6 1-.4.1-.7.3-1 .6.8.4 1.3.3 1.6-.4.1.5.1 1 0 1.2.3 0 .5-.1.7-.2.2-.1.4-.1.5.2 0 .4-.2.6-.8.6h-1.4c.5.3.9.5 1 .6 0 .5-.4.7-1.2.4 0 .7.1 1 .4 1-.5.5-1.1.9-1.5 1-.5.1-1.1.3-1.9.6l-.2.2c0 .1.1.2.2.2-.3.1-.5.2-.6.3.1.4-.2.5-.4.7M87 425c0 .4.2.6.6.6 0-.4-.2-.6-.6-.6m4.1-3.7c-.3 0-.5.3-.8.8.2 0 .5-.3.8-.8m4.5-6c-.3 0-.4.1-.5.4-.1.3 0 .5.3.6.1-.1.2-.3.3-.6.1-.2 0-.4-.1-.4"/><path class="st0" d="M76.5 346.9c-.7-.3-1.2-.8-1.4-1.4-.3-.7-.6-1.3-1-1.8-.1-.3-.3-.5-.6-.8l-.8-.8c-.3-.7-.5-1.3-.6-1.9-.1-.6-.6-1.1-1.4-1.3.3 0 .4-.2.3-.5-.1-.3.1-.5.5-.5-.5-1.1-1-2.3-1.4-3.7-.4-1.4-.8-2.7-1.2-4.1-.3-.1-.6-.4-1-.8-.3-1.4-.7-2.5-1.1-3.5-.5-1-.9-2.1-1.1-3.3 0-.1-.2-.2-.6-.2-.1-2.9-.8-5.5-1.8-8-.4 0-.7-.2-.8-.5-.1-.3-.3-.7-.4-.9-.1-.3-.3-.5-.5-.8-.2-.3-.6-.4-1.1-.4.1-.3.2-.5.1-.6-.1-.1-.2-.3-.3-.6 0 .7 0 1.3-.1 1.9-.1.6-.4 1.1-.9 1.3.1 1.5.3 2.9.5 4.3s.7 2.7 1.3 4.1c-.8.3-1.2.6-1.2 1 .1.1.3.2.5.1s.4 0 .7.1c1.2 2.9 2.2 5.7 2.8 8.6.6 2.9 1.5 5.7 2.8 8.6-.7.1-1 0-1-.3s-.3-.5-.8-.5c.1.4.4.7.8.8.4.1.5.5.2 1-1.1-.5-2-1.4-2.6-2.6-.6-1.2-1.1-2.5-1.5-4-.4-.1-1.1-.2-2.1-.2-1.5-2.2-2.6-4.4-3.4-6.8-.8-2.3-1.5-4.7-2.2-7.2-.3-.3-.5-.4-.7-.4-.2 0-.4-.1-.5-.4 0-.7.1-1 .4-1-.4-.7-.9-1.3-1.5-1.7-.6-.5-1.3-.9-2-1.3-.4.3-.5.6-.3 1.1s.3.9.3 1.3c-.3.4-.5.9-.7 1.5-.2.6-.1 1.3.3 1.9-.3 0-.5-.1-.7-.3-.2-.2-.5-.2-.9-.1-1.1-5.2-2.5-9.6-4.1-13.3-1.6-3.7-3-7.7-4.1-12.1-.1-.3-.1-.4 0-.4s.3-.1.4-.2c-.3 0-.4-.1-.5-.2-.1-.1-.2-.3-.5-.4-.1-3.6-.8-7-2.1-10.4-1.2-3.3-1.9-6.8-1.9-10.4-.1-.3-.3-.4-.6-.5-.3-.1-.6-.2-.8-.5 0-.4.1-.7.3-.8.2-.1.2-.3.1-.6-1.1-3.3-1.8-6.8-2.2-10.5-.3-3.7-1.5-7.2-3.4-10.5.3-.7.3-1.3.2-1.8-.1-.5-.3-1.2-.4-1.8-.1-.1-.3-.2-.4-.2-1.1-5.6-2.3-11.5-3.5-17.5-1.2-6.1-1.9-11.7-1.9-16.9-.2-.3-.4-.5-.6-.6-.2-.1-.5-.3-.8-.6.4-.8.6-1.7.6-2.7-.1-1.6-.2-3.3-.3-5-.1-1.7-.1-3.5-.1-5.4 0-2.2-.1-4.4-.4-6.7-.3-2.3-.3-4.5 0-6.7.3-.8.3-1.8.2-3.1-.1-1.2-.1-2.4.2-3.5-.7-.7-.9-1.3-.6-1.8.3-.5.7-1.2 1.2-1.8 0-.4-.1-.9-.4-1.4.7-1.5 1.6-2.8 2.8-3.8 1.2-1 2.2-2.2 3-3.4.4 0 .7-.1.8-.4.1-.3.4-.3.8-.2.1-.4.4-.8.8-1 .4-.3.9-.5 1.3-.8.5-.3 1-.5 1.4-.8.5-.3.8-.7.9-1.2.3.3.6.3.9 0 .3-.3.7-.5 1.1-.6.8.3 1.2.5 1.2.8-.3.3-.6.5-.8.7-.3.2-.5.4-.8.7.1.3.3.5.5.7.2.2.4.6.7 1.1.3 0 .4-.1.4-.4 0-.3.1-.4.4-.4.6.5 1.1.6 1.7.2.5-.4 1-.3 1.4.4 1.2-1.2 2.8-1.8 4.5-1.6-.1.3-.2.6-.2 1 .4 0 .7-.1.8-.3.1-.2.3-.3.6-.3 1.1 0 1.7.5 1.9 1.4.4 0 .6-.1.6-.3 0-.2.1-.2.4.1 0 .7-.1 1.1-.2 1.2.8 1.2 1.2 2.6 1.2 4s.1 2.8.4 4.2c.4 2.6.9 5.4 1.3 8.3.5 2.9.8 6 .9 9.1 0 1.6 0 3.3.1 5 .1 1.7 0 3.3-.3 4.8.3.3.4.8.4 1.5v1.9c0 .1.1.2.2.2s.2.1.2.2c.3 3.8.7 7.3 1.2 10.6.5 3.2 1 6.6 1.2 10.2.1.1.3.2.5.2s.4.1.5.4c-.3.3-.4.5-.3.6.1.1 0 .2-.3.2 2.2 1.1 4.2 2.2 6 3.3s3.9 2.2 6.4 3.3c2.5 1.8 4.9 3.5 7.3 5 2.4 1.6 4.8 3.2 7.1 5 1.6.7 3.1 1.4 4.5 2.2 1.4.8 2.9 1.5 4.5 2.2.5.7 1.3 1.1 2.2 1.3.9.2 1.7.6 2.4 1.3.4.4.7.8.9 1.1.2.3.5.6.9.9.5.4 1.8 1.1 3.7 2.2 1.9 1 4 2.2 6.3 3.4 2.3 1.2 4.4 2.4 6.4 3.5s3.3 1.8 4 2.3c.5.3 1.7.8 3.4 1.5 1.7.8 3.5 1.6 5.4 2.6 1.9 1 3.7 1.9 5.4 2.8 1.7.9 2.8 1.5 3.2 1.7 0 .3 0 .4-.1.4s0 .1.1.4c3 2.3 6.5 4.3 10.5 5.9.8.7 1.7 1.3 2.8 1.9 1 .6 2.1 1.3 3.2 1.9.8.7 1.5 1.4 2.1 2.2.5.8 1.4 1.5 2.5 2.2.5.3 1.2.5 1.8.8.7.3 1.3.5 1.8.8.8.4 1.5.9 2.1 1.5.5.6 1.2 1.3 1.8 1.9.4.3.8.5 1.1.7.3.2.5.5.5.9.4 0 .8.1 1.2.4.4.3.8.3 1.2.2l.4.4c.1.3.1.4-.1.4s-.4.1-.5.4c.8.3 1.7.5 2.7.6 1 .1 2 .4 3.1.8.3.8.2 1.6-.1 2.5-.3.8-.3 1.8.1 2.9-1.1-.3-1.9-.1-2.6.4-.6.5-1.3.6-2.2.2 0 .3.1.4.4.5.3.1.3.2.2.5-.4.7-.8 1.2-1 1.6-.3.4-.2 1 .2 1.6-.8 1-1.7 1.8-2.8 2.5-1 .7-1.7 1.6-2 2.9-.4 0-.7.1-.8.2-.1.1-.4.1-.8 0-.1 1.2-.6 2.1-1.5 2.5-.9.4-1.8.6-2.9.5-1-.1-2.1-.3-3.2-.7-1.1-.4-2.1-.9-2.9-1.4-.3-.1-.4-.1-.4 0s-.2.3-.6.4c-3.7-1.5-7.2-3.1-10.5-4.9-3.3-1.8-6.6-3.4-10.1-4.9-.1 0-.9-.2-2.2-.7-1.3-.5-2.7-1-4.3-1.6-1.6-.6-3-1.2-4.3-1.7-1.3-.5-2.1-.8-2.4-.8-.5-.7-1.8-1.6-3.9-2.8-2.1-1.2-4.3-2.4-6.8-3.6-2.5-1.2-4.8-2.4-7-3.5s-3.7-1.8-4.5-2.3c-.8.1-1.7-.2-2.7-1-1-.8-2-1.4-3.1-1.6-.3-.1-.5-.2-.7-.1-.2.1-.4 0-.7-.1-1.5-.7-2.9-1.6-4.3-2.7s-2.8-2.1-4.3-2.9c-1.1-.7-2.1-1.2-3-1.5-.9-.3-1.7-.9-2.4-1.5h-.8c-.5-.5-1.2-1-1.9-1.3-.8-.3-1.4-.7-2-1.1-.3-.3-.4-.3-.4 0s-.1.4-.4.4c-.7-.3-1.2-.6-1.4-.9-.3-.3-.7-.7-1.2-.9-.3.3-.4.5-.3.6.1.1.1.4.1.8h-1c.1 3.4.4 7 .9 10.7.5 3.7 1.1 7.5 1.7 11.3 0 .3-.2.4-.6.4.3 1.1.4 2 .5 2.8.1.8.2 1.7.3 3 .1 1.2.5 2.4 1 3.6.5 1.2 1 2.4 1.2 3.6v1.6c.4 1.2.7 2.4.9 3.4.2 1 .7 2.1 1.5 3.2-.1 1.4.2 2.7.9 3.9.8 1.2 1 2.4.7 3.5.1.4.4.6.7.7l.9.3c0 .4-.1.9-.4 1.4.4 1 .8 2.1 1.1 3.3.3 1.2.4 2.5.1 3.9.4.5.7 1.2.8 2 .1.8.3 1.6.4 2.3.3 1.6.4 3 .4 4.2s-.1 2.5-.4 4c-.3-.1-.4-.1-.5 0 .5-.1.4-.1.1-.2m-19.1-34.1c.3-.1.4-.1.4.1s.1.3.4.3c0-.3-.1-.5-.3-.7-.2-.2-.3-.1-.5.3m85.4-3.5c-.4.1-.4.3 0 .4.4.1.8.3 1 .4.1-.3 0-.4-.4-.4s-.6-.1-.6-.4m20.5-15.6c-.3.1-.4.1-.4-.2 0-.3-.1-.3-.4 0 0 .3.1.4.4.5.3.1.4 0 .4-.3m-1.4-1.8c.3.1.4.3.4.6s.1.3.4.2c0-.3-.1-.5-.2-.7s-.3-.2-.6-.1m-75.7-45.1c.7 0 1.2.2 1.5.5.3.3.7.4 1.1.3-.4-.1-.9-.4-1.3-.7-.5-.4-.9-.4-1.3-.1m15.8-56.5c-.3-.3-.7-.7-1.3-1.2-.6-.5-1.3-1.1-1.9-1.5-.7-.5-1.3-.9-1.7-1.3-.5-.4-.7-.7-.7-.8-2.3-1.6-4.5-3.4-6.5-5.1-2-1.8-4.1-3.4-6.5-4.9-1.5-2.1-3.5-3.6-6-4.7s-4.3-2.2-5.4-3.3c-.3 0-.4.1-.5.3s-.2.4-.3.5c-.7-.3-1.2-.5-1.5-.6-.3-.1-.5-.5-.5-1.2v-.4c-2-1.5-3.2-3.5-3.5-5.9-.3-2.5-.9-4.8-1.8-7 0-.1.2-.3.7-.6 0-2.1.4-4.2 1.1-6.5.8-2.3 1.7-4.1 2.8-5.6v-.5c0-.3-.1-.3-.4-.2-.3.1-.4.1-.4-.2.7-.7 1.4-1.9 2.2-3.7.8-1.8 1.1-2.9 1.1-3.5V131c0-.3.3-1.1 1-2.6.7-1.4 1.3-2.4 1.8-3 0-.4-.1-.6-.2-.6 1-.3 1.4-1.1 1.4-2.5 0-.4-.1-.7-.2-.8.5 0 1.4-.6 2.6-1.7 1.2-1.2 2.3-2.4 3.5-3.8 1.2-1.4 2.6-3.2 4.2-5.5 2.3-2.6 4.9-4.8 7.8-6.6 2.9-1.8 6.1-2.7 9.7-2.7.5 0 1.1.1 1.5.2.5.1.9.2 1.3.2h1.6c3.6 0 6.6.8 9.1 2.4 2.5 1.6 4.8 3.4 6.7 5.4 1 .3 1.6.8 1.8 1.5.3.8.8 1.3 1.6 1.5l-.2.2c0 .4.7 1.3 2 2.8 1.3 1.4 2.7 2.9 4.1 4.4 1.4 1.5 2.8 2.8 4 3.9 1.2 1.1 1.7 1.5 1.4 1.2.8.5 1.7 1.4 2.7 2.7 1 1.2 1.9 2.6 2.9 4.2s1.9 3.2 2.8 4.9c.9 1.7 1.6 3.4 2.2 5 1.5 3 3.3 6.1 5.2 9.1 2 3.1 3 5.7 3 7.9 0 .5-.1 1-.2 1.2.3.1.5.3.6.5.1.2.3.4.6.5-.2.3-.3.4-.4.5-.1.1-.1.2-.1.5 1 2.6 1.5 5.5 1.5 8.6 0 1.9-.2 3.7-.6 5.3-.4 1.6-1.1 2.9-2.1 3.9v.8c0 1.4-.4 2.6-1.1 3.6-.8 1-1.6 1.9-2.6 2.8-1 .8-1.9 1.7-3 2.6-1 .9-1.9 1.9-2.6 3-1.5.7-2.8 1.2-3.8 1.5s-2.3 1.1-3.8 2.2h-.8c-.7 0-1.4.1-2.2.2-.8.1-1.5.2-2.2.2-.5-.3-1-.5-1.3-.6-.3-.1-.9-.2-1.5-.2h-5.5c-.7 0-1.4 0-2.2.1-.8.1-1.5.1-2.2.1-1.2 0-2.2-.1-2.9-.4h-.8c-2.3 0-4.7-.6-7.3-1.9-2.5-1.3-4.8-2.5-6.9-3.6-.1 0-.2 0-.3.1-.1.1-.2.1-.3.1h-.3zm24.4-27c-.7-1.6-1.3-3.2-1.9-4.6-.6-1.4-1.5-2.8-2.8-4l.2-.4c0-.7-.3-1.2-.9-1.5-.6-.3-.9-.9-.9-1.5v-.4c-.5-.3-1.4-1.2-2.5-2.8-1.1-1.6-2.3-3.3-3.5-5.1-1.2-1.8-2.5-3.6-3.7-5.3-1.2-1.7-2.3-2.9-3.1-3.6-.1-.1-.5-.6-1-1.3-.5-.8-1.2-1.5-2.1-2.4-.8-.8-1.8-1.6-2.9-2.3-1.1-.7-2.3-1-3.7-1-1.2 0-2.3.4-3.3 1.1-1 .8-1.8 1.6-2.7 2.7-.8 1-1.6 2.1-2.4 3.2-.8 1.1-1.5 1.9-2.4 2.5 2.7 2.6 5.5 5.2 8.4 7.7 2.9 2.5 6.4 5.6 10.7 9.1 3.1 2.6 6.3 5 9.4 7.3 3.1 2.3 6.2 4.1 9.2 5.6v-.6c0-.7.2-1.1.6-1.2.7-.3 1-.7 1.3-1.2M102 89.2c-.3-.3-.7-.7-1.3-1.2-.6-.5-1.3-1.1-1.9-1.5-.7-.5-1.3-.9-1.7-1.3-.5-.4-.7-.7-.7-.8-2.3-1.6-4.5-3.3-6.5-5.1-2-1.8-4.1-3.4-6.5-4.9-1.5-2.1-3.5-3.6-6-4.7s-4.3-2.2-5.4-3.3c-.3 0-.4.1-.5.3-.1.2-.2.4-.3.5-.7-.3-1.2-.5-1.5-.6-.3-.1-.5-.5-.5-1.2V65c-2-1.5-3.2-3.5-3.5-5.9-.3-2.5-.9-4.8-1.8-7 0-.1.2-.3.7-.6 0-2.1.4-4.2 1.1-6.5.8-2.3 1.7-4.1 2.8-5.6v-.2c0-.3-.1-.3-.4-.2-.3.1-.4.1-.4-.2.7-.7 1.4-1.9 2.2-3.7.8-1.8 1.1-2.9 1.1-3.5v-1.4c0-.3.3-1.1 1-2.6s1.3-2.4 1.8-3c0-.4-.1-.6-.2-.6 1-.3 1.4-1.1 1.4-2.5 0-.4-.1-.7-.2-.8.5 0 1.4-.6 2.6-1.7 1.2-1.2 2.3-2.4 3.5-3.8 1.2-1.4 2.6-3.2 4.2-5.5 2.3-2.6 4.9-4.8 7.8-6.6C95.8 1.3 99 .4 102.6.4c.5 0 1.1.1 1.5.2.5.1.9.2 1.3.2h1.6c3.6 0 6.6.8 9.1 2.4 2.5 1.6 4.8 3.4 6.7 5.4 1 .3 1.6.8 1.8 1.5.3.8.8 1.3 1.6 1.5l-.2.2c0 .4.7 1.3 2 2.8 1.3 1.4 2.7 2.9 4.1 4.4 1.4 1.5 2.8 2.8 4 3.9 1.2 1.1 1.7 1.5 1.4 1.2.8.5 1.7 1.4 2.7 2.7 1 1.2 1.9 2.6 2.9 4.2s1.9 3.2 2.8 4.9c.9 1.7 1.6 3.4 2.2 5 1.5 3 3.3 6.1 5.2 9.1 2 3.1 3 5.7 3 7.9 0 .5-.1 1-.2 1.2.3.1.5.3.6.5.1.2.3.4.6.5-.2.3-.3.4-.4.5-.1.1-.1.2-.1.5 1 2.6 1.5 5.5 1.5 8.6 0 1.9-.2 3.7-.6 5.3-.4 1.6-1.1 2.9-2.1 3.9v.8c0 1.4-.4 2.6-1.1 3.6-.8 1-1.6 1.9-2.6 2.8-1 .8-1.9 1.7-3 2.6-1 .9-1.9 1.9-2.6 3-1.5.7-2.8 1.2-3.8 1.5-1 .3-2.3 1.1-3.8 2.2h-.8c-.7 0-1.4.1-2.2.2-.8.1-1.5.2-2.2.2-.5-.3-1-.5-1.3-.6-.3-.1-.9-.2-1.5-.2h-5.5c-.7 0-1.4 0-2.2.1-.8.1-1.5.1-2.2.1-1.2 0-2.2-.1-2.9-.4h-.8c-2.3 0-4.7-.6-7.3-1.9-2.5-1.3-4.8-2.5-6.9-3.6-.1 0-.2 0-.3.1-.1.1-.2.1-.3.1h-.3zm24.4-27c-.7-1.6-1.3-3.2-1.9-4.6-.6-1.4-1.5-2.8-2.8-4l.2-.4c0-.7-.3-1.2-.9-1.5-.6-.3-.9-.9-.9-1.5v-.4c-.5-.3-1.4-1.2-2.5-2.8-1.1-1.6-2.3-3.3-3.5-5.1-1.2-1.8-2.5-3.6-3.7-5.3-1.2-1.7-2.3-2.9-3.1-3.6-.1-.1-.5-.6-1-1.3-.5-.8-1.2-1.5-2.1-2.4-.8-.8-1.8-1.6-2.9-2.3-1.1-.7-2.3-1-3.7-1-1.2 0-2.3.4-3.3 1.1-1 .8-1.8 1.6-2.7 2.7-.8 1-1.6 2.1-2.4 3.2-.8 1.1-1.5 1.9-2.4 2.5 2.7 2.6 5.5 5.2 8.4 7.7 2.9 2.5 6.4 5.6 10.7 9.1 3.1 2.6 6.3 5 9.4 7.3s6.2 4.1 9.2 5.6v-.6c0-.7.2-1.1.6-1.2.7-.3 1-.6 1.3-1.2m160.4 723c3.6-2.6 8.5-5.7 11.8-7.2l3.8 8.6c-3.3 1.2-8.5 4.2-12.4 6.8l-3.1-7.5v47.7h-7.6v-7.7h-6.1v6h-7.6v-1c-1.7.9-5.3 3.3-7 4.8-3.1-4.8-8.2-9.6-13.6-12.3l2.5-7.5c1.5.7 3 1.6 4.4 2.5V781h7.5v43c.5.5 1.1 1 1.5 1.4v-7.3h4.6v-2.9h-4.6V808h4.6v-3.3h-4.6v-7.2h4.6v-3.3h-4.6v-8h4.6v-5.4h7.6v5.4h6.1v-6.8h7.6v5.8zm12.3 49.6c-2.8-2.2-7.6-5.2-11.8-7.1l2.2-8.5c4.4 1.8 9.7 4.8 13 7l-3.4 8.6zm-33.7-9h-4.3c1.6 1.6 3 3.2 4.3 4.9v-4.9zm13.8-7.7v-2.9h-6.1v2.9h6.1zm10-8.7c3.7-.8 8.5-1.5 11.4-1.6l1.2 8.6c-3 0-7.9.4-11.7 1.1l-.9-8.1zm-10-1.4v-3.3h-6.1v3.3h6.1zm9.4-10.8c3.6-1.4 8.2-2.9 11.3-3.3l1.7 8.7c-3 .3-7.8 1.6-11.6 2.8l-1.4-8.2zm-9.4.3v-3.3h-6.1v3.3h6.1zm20.9-96.8v28.9h1.9v7.9h-15.9c.8.7 1.6 1.4 2.3 2.1-1.5.5-5.2 2.2-7.2 3.2h20.9v7.5h-32.4c2.1.3 4 .7 5.6 1.1l-2 5.7c-4.1-1.2-10.8-2-15.7-2.3l.6-4.5h-12.5v-7.5h11l-.9-2.8c2-.7 4.3-1.4 6.6-2h-14.6v-16.8h21.3v10.3l2-4.7c.5.3 1.1.6 1.7 1v-6.3c-.8.2-1.7.5-2.4.7l-1.2-6v3.2h-21.3V702h21.3v12.6c1.1-.4 2.4-.9 3.6-1.3v-12h5.8V713h1.6v-10.4h5.3V713h1.6v-10.3h5.3V713h1.5v-12.3h6.2zm-19.5 42.1c-3-3-7.3-6.7-11.4-9.1v2.6l.9-.2 2 5.5c-1.5.3-3.4.7-5.5 1.2h14zm-26.9-10.7v-4.8h-1.5v4.8h1.5zm5.5 0v-4.8h-1.5v4.8h1.5zm5.6 0v-4.8h-1.5v4.8h1.5zm13.7-11.4v8.8h1.6v-8.8h-1.6zm7 0v8.8h1.6v-8.8h-1.6zm8.5 8.8v-8.8h-1.5v8.8h1.5zm-40.3-16.2v-4.9h-1.5v4.9h1.5zm5.5 0v-4.9h-1.5v4.9h1.5zm5.6 0v-4.9h-1.5v4.9h1.5zm27.4-91.8h8.2v37.7h-8.2v-15.5h-10.3v11h-8v-11h-8.3v5.3c2.9.9 5.5 1.9 7.6 3-1.2 1.7-3.1 5.6-3.9 7.7-.9-.5-1.8-1-2.9-1.5l1.5 3.5c-1 .2-2.2.5-3.6 1H302v8.7h-32.5c2.1.4 4 .8 5.7 1.3l-2.3 6.3c-4-1.4-10.7-2.4-15.7-2.8l.7-4.8h-12.1v-8.7h11.4l-1.4-3.3c1.8-1 4-1.9 6-2.7-4-1.1-8.7-1.9-13.2-2.3l1.2-8.4c2.6.3 5.2.7 7.7 1.1v-3.3h-11.3v-8.7h11.3v-11.5h8.1v11.5h8.3v-10.2h8v10.2h10.3v-13.6zm-9.2-70c1.1-2.9 2-6 2.5-8.9 1.4 1.6 4.1 3.8 5.9 4.9-1.6 5.7-4.9 12-8.5 16.4v14.2c3.9 4.3 7.3 10.5 9 16.6-1.7 1.1-4.5 3.3-5.9 4.9-.7-3.3-1.8-6.7-3.1-9.7v8h-6.7v-13.4h-1.8V595h-6.3v-10.5h-1.7v7.7h-18.7v-41.6h18.7v7.7h1.7v-10.7h6.3v10.7h1.8v-13.4h6.7v6.6zm5.7 3.4c1.7 1.9 3 3.5 4 4.8 1.1-3.7 2.3-7.3 3.2-9.9l5.4 3.9c-1.4 3.4-3.3 9-4.7 13.9 2.6.2 4 .8 4.9 2.9.9 2.3.9 5.1.9 8.9-1.4.2-3 .7-4.4 1.3 1.2 3.6 2.3 7.1 3.3 10.1l-6.2 3.5c-.6-2.9-1.6-6.6-2.6-10.6-1.1.6-2.5 1.7-3.6 2.8l-3-6.3c1.1-1.3 2.7-2.7 3.9-3.3l2.1 4.4-1.1-3.9 5.5-1c-.1-.5-.2-.7-.8-.7h-11.4v-8h9.1l-2-1.6c.5-2 1-4.1 1.7-6.3l-2.9 5.9c-1.2-1.1-3.1-2.6-4.3-3.4l3-7.4zm-34.2 29v-24.5h-1.4v24.5h1.4zm6.6 0v-24.5h-1.5v24.5h1.5zm7.1-7.8v-9.3h-1.7v9.3h1.7zm8.1 0v-9.3h-1.8v9.3h1.8zm-18.4-108.4s2.8.1 4 .2c23.3 1.1 32.4 2.3 35.6 5 2.5 2 3.3 3.9 3.7 6.7.4 2.3.4 6 .3 9.6-2.5.1-6.5 1.4-8.9 3 .3-3.6.3-7 .3-8.7 0-1.2-.2-1.9-1-2.8-1.7-1.7-9.2-2.9-25.1-3.7v14.9c12.3 1 26.9 5.3 35.8 21.8-2.1 1.4-5.5 4.7-7.1 6.9-7.1-14.2-18.8-18.2-28.7-19.3v17.3H258v-17.7h-11.9v-9.3H258v-23.9zm8.1-79.8c9.4 1.7 17.4 4.4 24.1 8.3 2.4-.8 3.8-1.6 3.8-2.3 0-.8-3-1.4-9.7-1.5 1.9-1.8 3.8-4.5 4.7-6.6 10.7 1.1 13.2 3.5 13.2 9.1 0 2.8-1.8 5-4.8 6.8 1.9 1.8 3.6 3.7 5.2 5.9-1.5 1.1-4.6 4.2-6 6-2.1-3.4-4.7-6.2-7.8-8.6-7.4 1.9-17.2 2.9-27.3 3.3v22.4h9.6c9.1 0 22.6 1 30.8 6.5-1.5 1.3-4.3 4.7-5.2 6.5-7.2-4.6-17.8-5-25.7-5h-17.4v-30.1c-2.6 0-5.2.1-7.8.1V400c2.5.1 5.2.1 7.8.1v-5.6c-1.2 1.6-2.5 3.6-3.5 5.3l-4.9-4.8c1.2-2.5 3.3-5.9 4.8-7.6l3.6 3.4v-3.9h7.8v13c5.5-.2 10.7-.7 15.3-1.3-3.6-1.3-7.6-2.2-11.9-2.8l1.3-7.9zm29.9 26.4c-.7 1-1.4 2.1-2.3 3.3 3 2.9 5.2 6.8 7.1 11.9-1.8.8-4.3 2.4-5.6 3.8-1.2-4-2.9-7.1-5-9.6-1.4 2.5-2.7 5-3.7 7.3-1.8-.8-4-1.7-6.3-2.5v1.3h-5.6v-3.2c-1.5-.4-2.9-.8-4.3-1.1v3.8h-6.5v-20h6.5v9.3c1.4.4 2.8.7 4.3 1.1v-3.2c-.9-.1-1.8-.2-2.7-.4l.8-7.1c.7.1 1.3.2 2 .3v-.8h5.6v1.9c3 .8 5.7 1.8 8 3.1 1.1-1.8 2-3.5 2.9-4.8l4.8 5.6zm-15.8 7.2c1.1.4 2.3.7 3.3 1.1.5-1 .9-1.9 1.4-2.9-1.4-.7-3-1.4-4.7-1.9v3.7zm-18.3-113.2s1.5.1 2.4.2c4.6.5 7.1 1.3 8.3 2.6 1.1 1.1 1.5 2.6 1.6 4.2.1 1.4.2 3.9.1 6.5-1.5.1-3.7.7-5.2 1.4 2.5 2.2 4.3 5.5 5.6 10.9v-17.7h19.9c3.9 0 5.6 1 6.6 3.9 1 2.8 1 6.7 1 11.5-2.1.4-4.9 1.6-6.7 2.6.2-2.6.2-6.8.2-7.7-.1-1.1-.3-1.4-1.2-1.4h-1.6c1.4 7.9 2.7 15.8 3.7 22.1l-4.6 1.4c3.9.8 7.6 2.1 10.6 4.2-1.3 1.6-3.7 5.4-4.6 7.3-5.3-3.9-12.4-4.2-17.4-4.2h-5.9v-21.2c-1.5.6-3.7 2.2-4.8 3.5-.8-4.1-2-6.6-3.4-8.3v6.3h-4.7v-8.9c-.5-.1-1.1-.2-1.7-.3-.1 1.6-.1 3.3-.2 5.2-1.5.1-3.7.7-5.1 1.6.2-2.7.3-5.6.3-6.8 0-1-.1-1.6-.4-2.1-.3-.4-.8-.8-1.6-1.1v9.9c3.1 2 5.1 6 6.2 13.9.9.1 1.7.2 2.5.4v-11.1s1.6.1 2.5.4c4.4.8 6.9 1.7 8.1 3 1 1.1 1.4 2.5 1.5 3.8.1 1.2.2 3.3.1 5.6-1.4.1-3.2.5-4.6 1.1 2.8 1.9 5 5 6.6 10-1.6.7-4 2.4-5.2 3.8-1.1-3.8-2.5-6-4.3-7.5v6.3h-4.7v-8.3c-.6-.1-1.2-.2-1.8-.2.1 1 .1 2 .2 3-1.6.3-4 1.7-5.2 2.7-.2-8.1-.8-13.1-1.9-16.1v13.7h-4.9v-18.5c-.8-.2-1.7-.3-2.6-.4v-7.8c.9.1 1.8.2 2.6.4v-17.5s1.8.2 2.7.5c4.3.8 6.6 1.9 7.7 3.5.2.4.4.7.6 1.1.9.1 1.7.2 2.5.4v-11.8zm4.7 41.2c.8.3 1.5.7 2.2 1.1.1-1.1.1-2 .1-2.6 0-.7-.1-1.1-.5-1.5-.3-.3-.9-.7-1.8-1v4zm13.6-24.1v22.5h.6c2.7 0 5.9.2 9.1.7-.4-4.2-.9-9.9-1.5-16-1.1 4.3-2.3 10.5-2.9 15.1l-4.6-2.1c.5-5.6 2-13.6 3.1-17.8l4.1 1.7-.4-4.1h-7.5zm-13.6-3.9c.8.4 1.6.8 2.3 1.4.1-1.6.2-3.1.2-3.8 0-.8-.1-1.2-.5-1.6-.3-.3-.9-.6-2-.8v4.8z"/></svg>